#tb 0: 1/25
0,          0,          0,        1,   599040, 0x1cf21d79
0,          1,          1,        1,   599040, 0x1cf21d79
0,          2,          2,        1,   599040, 0xc182eaa8
0,          3,          3,        1,   599040, 0x260358ee
0,          4,          4,        1,   599040, 0x381e5b16
0,          5,          5,        1,   599040, 0x329dacd8
0,          6,          6,        1,   599040, 0x7306d51c
0,          7,          7,        1,   599040, 0x869d359b
0,          8,          8,        1,   599040, 0xf8fc941a
0,          9,          9,        1,   599040, 0x0798842b
0,         10,         10,        1,   599040, 0xe6e1f54e
0,         11,         11,        1,   599040, 0xc7d5ba9e
0,         12,         12,        1,   599040, 0xc8c5507a
0,         13,         13,        1,   599040, 0x97ae604a
0,         14,         14,        1,   599040, 0x14dd4139
0,         15,         15,        1,   599040, 0xb2f998dc
0,         16,         16,        1,   599040, 0xc3a3a6bc
0,         17,         17,        1,   599040, 0x1f95be77
0,         18,         18,        1,   599040, 0xb7fd124b
0,         19,         19,        1,   599040, 0x25703b3c
0,         20,         20,        1,   599040, 0x3bddeba7
0,         21,         21,        1,   599040, 0xffcc9b6d
0,         22,         22,        1,   599040, 0x3dd66a0a
0,         23,         23,        1,   599040, 0xe9607af7
0,         24,         24,        1,   599040, 0x218cdc65
0,         25,         25,        1,   599040, 0x88f97761
0,         26,         26,        1,   599040, 0x62e1f5d4
0,         27,         27,        1,   599040, 0xcc3cd429
0,         28,         28,        1,   599040, 0xb4290272
0,         29,         29,        1,   599040, 0x4f73142c
0,         30,         30,        1,   599040, 0x753eefd9
0,         31,         31,        1,   599040, 0xea77e837
0,         32,         32,        1,   599040, 0xfa927e55
0,         33,         33,        1,   599040, 0x3dff1295
0,         34,         34,        1,   599040, 0x513c2088
0,         35,         35,        1,   599040, 0x9822b7f0
0,         36,         36,        1,   599040, 0xc4770af6
0,         37,         37,        1,   599040, 0x7cb576fb
0,         38,         38,        1,   599040, 0x2af8ca3a
0,         39,         39,        1,   599040, 0x0a324910
0,         40,         40,        1,   599040, 0x1aeb3d7a
0,         41,         41,        1,   599040, 0x82de1408
0,         42,         42,        1,   599040, 0x7ebad7f4
0,         43,         43,        1,   599040, 0xd100bcc1
0,         44,         44,        1,   599040, 0x4719dc40
0,         45,         45,        1,   599040, 0xd82f658b
0,         46,         46,        1,   599040, 0x8c596a54
0,         47,         47,        1,   599040, 0xd0b4572c
0,         48,         48,        1,   599040, 0xdc3c5a89
0,         49,         49,        1,   599040, 0x4f0ad888
